# xmcd CD database file
#
# Track frame offsets:
#	151
#	31036
#	55456
#	72852
#	105707
#	151556
#	171197
#	196068
#	226017
#	265417
#
# Disc length: 3880 seconds
#
# Revision: 3
# Processed by: cddbd v1.5.1PL0 Copyright (c) Steve Scherf et al.
# Submitted via: Kscd 1.3.3
#
DISCID=750f260a
DTITLE=Emilie-Claire Barlow - Tribute
DYEAR=2001
DGENRE=Jazz
TTITLE0=Air Mail Special - It Don't Mean A Thing If It Ain't Got That Swing
TTITLE1=Aguas de Marco
TTITLE2=Twisted
TTITLE3=La Belle Vame Sans Regret
TTITLE4=Strayhom Medley
TTITLE5=Summer Song
TTITLE6=De Flor Em Flor
TTITLE7=Spain
TTITLE8=Jobim Medley
TTITLE9=Mood Indigo
EXTD=YEAR: 2001
EXTT0=
EXTT1=
EXTT2=
EXTT3=
EXTT4=
EXTT5=
EXTT6=
EXTT7=
EXTT8=
EXTT9=
PLAYORDER=
